<?xml version="1.0" encoding="UTF-8"?>
<svg width="76px" height="76px" viewBox="0 0 76 76" version="1.1" xmlns="http://www.w3.org/2000/svg" xmlns:xlink="http://www.w3.org/1999/xlink">
    <!-- Generator: Sketch 49.3 (51167) - http://www.bohemiancoding.com/sketch -->
    <title>edit24 copy</title>
    <desc>Created with Sketch.</desc>
    <defs></defs>
    <g id="Page-1" stroke="none" stroke-width="1" fill="none" fill-rule="evenodd">
        <g id="HADRON-landing-page" transform="translate(-683.000000, -986.000000)">
            <g id="edit24-copy-4" transform="translate(683.000000, 986.000000)">
                <g id="Group" transform="translate(0.595238, 0.595238)" fill="#CBC9D3">
                    <path d="M70.6464286,4.35297619 C67.9154762,1.62142857 64.6255952,0.255357143 60.7785714,0.255357143 L14.2220238,0.255357143 C10.375,0.255357143 7.08511905,1.62142857 4.35297619,4.35297619 C1.62142857,7.08511905 0.255357143,10.375 0.255357143,14.2220238 L0.255357143,60.7779762 C0.255357143,64.625 1.62142857,67.914881 4.35297619,70.6470238 C7.08511905,73.3791667 10.375,74.7452381 14.2220238,74.7452381 L60.7779762,74.7452381 C64.625,74.7452381 67.914881,73.3791667 70.6458333,70.6470238 C73.3779762,67.914881 74.7440476,64.625 74.7440476,60.7779762 L74.7440476,14.2220238 C74.7440476,10.375 73.3779762,7.08452381 70.6464286,4.35297619 L70.6464286,4.35297619 Z" id="Shape"></path>
                </g>
                <g id="syringe" transform="translate(17.261905, 17.261905)" fill="#FFFFFF">
                    <path d="M16.3985451,14.2286844 L20.93098,18.7701436 C21.1832341,19.0224469 21.1832341,19.4375265 20.93098,19.6898297 L20.0114735,20.6095159 C19.7592195,20.8618192 19.3442209,20.8618192 19.0919669,20.6095159 L14.5595319,16.0680568 L10.8733685,19.7549403 L15.4139407,24.2963994 C15.6661947,24.5487027 15.6661947,24.9637823 15.4139407,25.2160856 L14.4944341,26.1357717 C14.2421801,26.388075 13.8271816,26.388075 13.5749276,26.1357717 L9.03435537,21.5861738 L6.88612766,23.7348211 C5.47838753,25.1428362 4.80299775,27.0798743 5.01456563,29.0576065 L5.59230869,34.2338933 L0.189190509,39.6380669 C-0.0630635029,39.8903702 -0.0630635029,40.3054498 0.189190509,40.557753 L1.10869707,41.4774392 C1.36095108,41.7297425 1.77594961,41.7297425 2.02820363,41.4774392 L7.42318458,36.0814044 L12.5984604,36.6592603 C14.5432575,36.8708696 16.4961918,36.2197643 17.9202064,34.7873327 L32.7218208,19.9828271 L21.6796049,8.93845428 L16.3985451,14.2286844 Z M41.4774762,6.63516945 L35.032793,0.189227464 C34.780539,-0.0630758212 34.3655405,-0.0630758212 34.1132865,0.189227464 L33.1937799,1.10891363 C32.9415259,1.36121692 32.9415259,1.77629651 33.1937799,2.0285998 L35.4966149,4.33188462 L31.8104515,8.01876811 L27.2047814,3.41219846 L25.821453,2.0285998 C25.569199,1.77629651 25.1542004,1.77629651 24.9019464,2.0285998 L22.1434267,4.7876583 C21.8911727,5.03996158 21.8911727,5.45504118 22.1434267,5.70734447 L23.5267552,7.09094313 L34.5689711,18.1515936 L35.9522996,19.5351922 C36.2045536,19.7874955 36.6195521,19.7874955 36.8718061,19.5351922 L39.6303258,16.7679949 C39.8825798,16.5156916 39.8825798,16.100612 39.6303258,15.8483088 L33.6494646,9.86627926 L37.335628,6.17939577 L39.638463,8.4826806 C39.8907171,8.73498389 40.3057156,8.73498389 40.5579696,8.4826806 L41.4774762,7.56299443 C41.7297302,7.30255233 41.7297302,6.89561155 41.4774762,6.63516945 Z" id="Shape" fill-rule="nonzero"></path>
                </g>
            </g>
        </g>
    </g>
</svg>