<?xml version="1.0" encoding="UTF-8"?>
<svg width="75px" height="75px" viewBox="0 0 75 75" version="1.1" xmlns="http://www.w3.org/2000/svg" xmlns:xlink="http://www.w3.org/1999/xlink">
    <!-- Generator: Sketch 49.3 (51167) - http://www.bohemiancoding.com/sketch -->
    <title>edit24 copy 2</title>
    <desc>Created with Sketch.</desc>
    <defs>
        <path d="M25.5,46.75 C17.329126,46.75 10.7173877,40.138263 10.7173877,31.9673906 C10.7173877,22.7372556 19.1172803,19.1787944 23.045874,6.08348443 C23.8015771,3.58362163 27.2874902,3.69468606 27.954126,6.08348443 C31.9008154,19.2390581 40.2826123,22.6907713 40.2826123,31.9673906 C40.2826123,40.138263 33.670874,46.75 25.5,46.75 Z M21.9703418,32.4871024 C21.845083,32.0278202 21.186167,32.0279032 21.0609082,32.4871024 C20.2953271,34.9296068 18.7439111,35.6119309 18.7439111,37.337663 C18.7439111,38.8750504 19.9781543,40.1093763 21.515625,40.1093763 C23.0530957,40.1093763 24.2873389,38.8750504 24.2873389,37.337663 C24.2873389,35.6078635 22.737334,34.9340892 21.9703418,32.4871024 Z" id="path-1"></path>
    </defs>
    <g id="Page-1" stroke="none" stroke-width="1" fill="none" fill-rule="evenodd">
        <g id="HADRON-landing-page" transform="translate(-279.000000, -986.000000)">
            <g id="edit24" transform="translate(279.000000, 986.000000)">
                <path d="M70.6464286,4.35297619 C67.9154762,1.62142857 64.6255952,0.255357143 60.7785714,0.255357143 L14.2220238,0.255357143 C10.375,0.255357143 7.08511905,1.62142857 4.35297619,4.35297619 C1.62142857,7.08511905 0.255357143,10.375 0.255357143,14.2220238 L0.255357143,60.7779762 C0.255357143,64.625 1.62142857,67.914881 4.35297619,70.6470238 C7.08511905,73.3791667 10.375,74.7452381 14.2220238,74.7452381 L60.7779762,74.7452381 C64.625,74.7452381 67.914881,73.3791667 70.6458333,70.6470238 C73.3779762,67.914881 74.7440476,64.625 74.7440476,60.7779762 L74.7440476,14.2220238 C74.7440476,10.375 73.3779762,7.08452381 70.6464286,4.35297619 L70.6464286,4.35297619 Z" id="Shape" fill="#CBC9D3" fill-rule="evenodd"></path>
                <polygon id="Shape" fill="#CBC9D3" fill-rule="evenodd" points="17.3261905 50.3029762 17.3261905 53.0178571 21.9815476 53.0178571 21.9815476 57.6744048 24.6970238 57.6744048 27.2190476 55.152381 19.847619 47.7803571"></polygon>
                <path d="M24.3583333,43.1255952 C23.8083333,43.6744048 23.760119,44.1589286 24.2125,44.5797619 C24.6327381,45.0327381 25.1178571,44.9845238 25.6672619,44.4345238 L39.7797619,30.3220238 C40.3291667,29.7732143 40.377381,29.2880952 39.925,28.8678571 C39.5041667,28.414881 39.0196429,28.4630952 38.4702381,29.0130952 L24.3583333,43.1255952 L24.3583333,43.1255952 Z" id="Shape" fill="#CBC9D3" fill-rule="evenodd"></path>
                <g id="Icons/Solid/tint" transform="translate(11.904762, 11.904762)">
                    <mask id="mask-2" fill="white">
                        <use xlink:href="#path-1"></use>
                    </mask>
                    <use id="tint" fill="#000000" fill-rule="nonzero" xlink:href="#path-1"></use>
                    <g id="Colors/White" mask="url(#mask-2)" fill="#FFFFFF" fill-rule="evenodd">
                        <rect id="Rectangle" x="0" y="0" width="51" height="51"></rect>
                    </g>
                </g>
            </g>
        </g>
    </g>
</svg>