<?xml version="1.0" encoding="UTF-8"?>
<svg width="125px" height="125px" viewBox="0 0 125 125" version="1.1" xmlns="http://www.w3.org/2000/svg" xmlns:xlink="http://www.w3.org/1999/xlink">
    <!-- Generator: Sketch 49.3 (51167) - http://www.bohemiancoding.com/sketch -->
    <title>Fill 4</title>
    <desc>Created with Sketch.</desc>
    <defs></defs>
    <g id="Page-1" stroke="none" stroke-width="1" fill="none" fill-rule="evenodd">
        <g id="HADRON-landing-page" transform="translate(-658.000000, -180.000000)" fill="#7B58FF">
            <path d="M758.304495,192.719902 C747.334189,184.399438 734.274499,180 720.548671,180 C700.796801,180 682.623513,189.010105 670.70018,204.710994 C649.855337,232.158173 655.233432,271.445366 682.696285,292.278699 C693.660994,300.600562 706.720683,305 720.457707,305 C740.203979,305 758.37027,295.994091 770.300601,280.287607 C791.142644,252.841827 785.768747,213.558831 758.304495,192.719902 Z M720.993499,188 C721.662807,188 722.324995,188.055152 723,188.082729 C718.255031,189.435414 713.34487,191.439768 708.423317,194 C705.511114,193.023222 702.69717,192.404935 700,192.139332 C706.556374,189.442671 713.643923,188 720.993499,188 Z M732,191 C728.39875,193.060434 724.909305,196.089112 721.662796,200 C719.42392,198.552009 717.202988,197.265878 715,196.159106 C720.914664,193.387071 726.691296,191.605152 732,191 Z M687.889706,199.950797 C690.264706,197.996572 693.426621,197 697.271384,197 C698.77536,197 700.369148,197.202928 702,197.493421 C698.272134,199.72841 694.581333,202.246942 691.007428,205.053188 C688.170543,207.272887 685.501876,209.599611 683,212 C683.124025,206.675222 684.762005,202.522146 687.889706,199.950797 Z M676.459797,208.911504 C676.963031,208.250257 677.482902,207.62235 678,207 C677.534196,209.799187 677.513401,212.933165 677.889094,216.307471 C672.853974,222.025314 668.805915,228.030716 666,234 C667.272643,225.152346 670.709335,216.507512 676.459797,208.911504 Z M669.955475,260.582028 C665.914342,255.585872 666.021057,247.581129 670.253154,238.059521 C672.491364,233.031241 675.729325,227.937313 679.766247,223.001218 C679.778884,222.985853 679.792925,222.966299 679.804159,222.955125 C683.8481,218.028807 688.689597,213.264511 694.13909,208.901081 C698.830343,205.156409 703.709752,201.931325 708.580736,199.285891 C711.697941,200.471727 714.916245,202.055636 718.194927,204.026442 C711.606672,213.010304 706.247045,225.291879 703.273063,239.47163 C702.20872,244.55578 701.548771,249.613392 701.234242,254.53552 C692.916078,244.054349 686.952668,232.830109 684.376059,222.582194 C684.354997,222.499786 684.343764,222.429949 684.324106,222.353128 C683.178323,223.650704 681.698352,225.449711 680.417771,227.367441 C683.730152,237.876548 690.069873,249.075646 698.594447,259.421333 C699.427105,259.19087 700.240106,258.915711 701.04047,258.634966 C701.04047,258.634966 701.04047,258.637759 701.04047,258.648933 C701.925082,258.337459 702.766166,257.99805 703.588996,257.644674 C703.628312,257.630706 703.676053,257.613945 703.720985,257.599978 C703.716773,257.594391 703.716773,257.594391 703.716773,257.594391 C705.689599,256.757741 707.477077,255.858238 708.896669,255.091425 C709.201369,250.512896 709.830427,245.791899 710.824562,241.035984 C713.769058,226.980543 718.955975,215.752113 724.774758,208.033703 C724.783182,208.019735 724.801436,208.004371 724.804245,207.989007 C725.48666,207.096487 726.171883,206.252853 726.861319,205.455312 C726.962418,205.339382 727.059304,205.227643 727.154786,205.12149 C732.324853,199.25656 737.851574,196.727055 742.572314,196.085949 C745.424136,195.701845 750.93541,196.444913 752.509459,201.632422 C753.666475,206.328277 752.784671,212.293774 749.779798,219.045637 C749.149336,220.467523 748.407947,221.896393 747.621625,223.323866 C747.170894,222.779135 746.755266,222.220437 746.287686,221.672914 C741.390023,215.898771 736.096391,210.779702 730.696043,206.469349 C729.402824,207.435896 728.200875,209.098022 727.379449,210.415152 C732.574791,214.545326 737.681672,219.45209 742.358884,224.976215 C743.197159,225.959523 743.984885,226.963782 744.779632,227.963851 C740.054679,235.070488 733.599818,242.04164 725.896671,248.204077 C720.336251,252.647122 714.510447,256.362462 708.733788,259.239756 C708.733788,259.229979 708.733788,259.225789 708.733788,259.214615 L708.71413,259.25093 C708.283057,259.461839 707.85058,259.678334 707.425124,259.885052 C707.040388,260.059645 706.633185,260.244016 706.217558,260.431179 C704.486245,261.192405 702.61873,261.955028 701.741139,262.320975 C701.65689,262.344719 701.548771,262.396399 701.488392,262.420144 C701.46733,262.425731 701.447672,262.435508 701.432227,262.441095 C701.395719,262.450872 701.406952,262.450872 701.381677,262.460649 C695.25679,264.752707 689.349546,266 684.072764,266 C679.625832,266 673.56694,265.059991 669.955475,260.582028 Z M686.91503,286.490981 C680.532985,281.585928 675.571947,275.4968 672,268.773446 C675.269428,270.390651 679.202178,271.254098 683.717763,271.254098 C688.977156,271.254098 694.78608,270.105179 700.78512,268 C701.108454,272.553487 701.760675,276.838376 702.845858,280.868732 C704.679014,287.694743 707.47801,293.115896 711,297 C702.292165,295.571235 694.088066,292.007759 686.91503,286.490981 Z M741.302961,286.995951 C740.670594,287.708502 740.026934,288.39993 739.384686,289.04207 C739.333871,289.087133 739.28729,289.132195 739.243533,289.184299 C734.69557,293.62577 730.023391,296 725.897477,296 C725.156421,296 724.416777,295.922549 723.694072,295.774688 C717.939246,294.577715 713.132972,288.368949 710.510342,278.750924 C709.839863,276.282345 709.357118,273.639148 709,270.912867 C717.330875,278.643901 726.181195,284.511882 734.476782,287.83524 C735.569309,286.807252 736.783229,285.458194 738.059256,283.658511 C728.992971,280.395705 718.815809,273.525084 709.582964,264.306988 C716.091548,261.16388 722.652359,257.040662 728.853229,252.06689 C736.46281,245.97078 742.940341,239.084668 747.883534,232 C752.056029,237.848266 755.474765,243.824679 758,249.695476 C757.939304,250.016546 757.888489,250.343249 757.820735,250.674177 C754.51351,266.485478 748.408625,278.731209 741.740537,286.496039 C741.603618,286.649534 741.459642,286.81711 741.302961,286.995951 Z M757.988883,283.33 C756.358978,284.692857 754.333199,285.555714 752,286 C756.124063,279.828571 759.698542,272.382857 762.429066,264 C763.950213,272.864286 762.418916,279.654286 757.988883,283.33 Z M767.674536,270 C767.713004,266.441594 767.270621,262.557399 766.233357,258.346011 C765.841807,256.732511 765.358208,255.103564 764.822403,253.45215 C764.822403,253.447937 764.822403,253.443724 764.822403,253.443724 C764.193175,251.239029 762.996543,248.388373 761.889212,245.928102 C761.44683,244.936691 760.990708,243.952302 760.508483,242.9637 C759.807815,241.497648 759.306356,240.521684 759.306356,240.521684 L759.306356,240.502024 C759.302234,240.517471 759.302234,240.531514 759.302234,240.546961 C756.95843,236.064549 754.169494,231.594776 751,227.220493 C752.272194,225.018607 753.431732,222.819529 754.386564,220.621855 C755.781032,217.389239 756.730369,214.297049 757.315633,211.346689 C757.444776,211.791841 757.594527,212.201886 757.7168,212.663889 C759.369554,218.881972 760.037249,226.057762 759.767973,233.691343 C762.676434,237.908348 764.819655,242.882252 766.14543,246.464531 C768.125162,233.497554 767.741855,220.94624 764.995509,210.634727 C764.937807,210.417066 764.862245,210.212044 764.793552,210 C777.106083,227.37777 778.537645,251.007326 767.674536,270 Z" id="Fill-4"></path>
        </g>
    </g>
</svg>