<?xml version="1.0" encoding="UTF-8"?>
<svg width="75px" height="75px" viewBox="0 0 75 75" version="1.1" xmlns="http://www.w3.org/2000/svg" xmlns:xlink="http://www.w3.org/1999/xlink">
    <!-- Generator: Sketch 49.3 (51167) - http://www.bohemiancoding.com/sketch -->
    <title>edit24</title>
    <desc>Created with Sketch.</desc>
    <defs>
        <path d="M45.0814063,29.5827655 C41.8377344,29.5827655 40.4329688,32.0818211 38.670625,32.0818211 C33.9850781,32.0818211 38.25,18.1406454 38.25,18.1406454 C38.25,18.1406454 22.915,24.4687704 22.915,17.8798475 C22.915,15.0458758 25.75,14.2214002 25.75,11.0782997 C25.75,8.27003598 23.5535156,6.75002035 20.9483594,6.75002035 C18.2410156,6.75002035 15.7635156,8.24432797 15.7635156,11.207077 C15.7635156,14.479034 18.2409375,15.8959803 18.2409375,17.6736297 C18.2410156,23.1809178 4.5,19.9408387 4.5,19.9408387 L4.5,46.3004061 C4.5,46.3004061 18.4558594,49.5472879 18.4558594,44.0331971 C18.4558594,42.2555477 15.3308594,40.8606707 15.3308594,37.5887137 C15.3308594,34.6258856 17.6160156,33.1316571 20.2978125,33.1316571 C22.9285156,33.1316571 25.125,34.6516727 25.125,37.4598573 C25.125,40.6029579 22.29,41.4274334 22.29,44.2614051 C22.29,49.0710174 32.4208594,46.2966883 36.4485938,46.2966883 C36.4485938,46.2966883 33.7357031,36.7965116 38.4663281,36.7965116 C41.2758594,36.7965116 42.093125,39.6561913 45.2091406,39.6561913 C47.993125,39.6562704 49.5,37.4406356 49.5,34.7870155 C49.5,32.0818211 48.0185938,29.5827655 45.0814063,29.5827655 Z" id="path-1"></path>
    </defs>
    <g id="Page-1" stroke="none" stroke-width="1" fill="none" fill-rule="evenodd">
        <g id="HADRON-landing-page" transform="translate(-1099.000000, -986.000000)">
            <g id="edit24-copy-3" transform="translate(1099.000000, 986.000000)">
                <path d="M70.6464286,4.35297619 C67.9154762,1.62142857 64.6255952,0.255357143 60.7785714,0.255357143 L14.2220238,0.255357143 C10.375,0.255357143 7.08511905,1.62142857 4.35297619,4.35297619 C1.62142857,7.08511905 0.255357143,10.375 0.255357143,14.2220238 L0.255357143,60.7779762 C0.255357143,64.625 1.62142857,67.914881 4.35297619,70.6470238 C7.08511905,73.3791667 10.375,74.7452381 14.2220238,74.7452381 L60.7779762,74.7452381 C64.625,74.7452381 67.914881,73.3791667 70.6458333,70.6470238 C73.3779762,67.914881 74.7440476,64.625 74.7440476,60.7779762 L74.7440476,14.2220238 C74.7440476,10.375 73.3779762,7.08452381 70.6464286,4.35297619 L70.6464286,4.35297619 Z" id="Shape" fill="#CBC9D3" fill-rule="evenodd"></path>
                <g id="Icons/Solid/puzzle-piece" transform="translate(14.285714, 9.523810)">
                    <mask id="mask-2" fill="white">
                        <use xlink:href="#path-1"></use>
                    </mask>
                    <use id="puzzle-piece" fill="#000000" fill-rule="nonzero" xlink:href="#path-1"></use>
                    <g id="Colors/White" mask="url(#mask-2)" fill="#FFFFFF" fill-rule="evenodd">
                        <rect id="Rectangle" x="0" y="0" width="54" height="54"></rect>
                    </g>
                </g>
            </g>
        </g>
    </g>
</svg>